<svg width="19" height="19" viewBox="0 0 19 19" fill="none" xmlns="http://www.w3.org/2000/svg">
<path d="M3.89156 2.17982C3.33156 2.17982 2.85156 2.37982 2.45156 2.77982C2.05156 3.17982 1.85156 3.66982 1.85156 4.24982C1.85156 4.82982 2.05156 5.31982 2.45156 5.71982C2.85156 6.11982 3.33156 6.31982 3.89156 6.31982C4.45156 6.31982 4.93156 6.11982 5.33156 5.71982C5.73156 5.31982 5.93156 4.82982 5.93156 4.24982C5.93156 3.66982 5.73156 3.17982 5.33156 2.77982C4.93156 2.37982 4.45156 2.17982 3.89156 2.17982ZM3.89156 3.31982C4.13156 3.31982 4.35156 3.40982 4.55156 3.58982C4.75156 3.76982 4.85156 3.98982 4.85156 4.24982C4.85156 4.50982 4.75156 4.72982 4.55156 4.90982C4.35156 5.08982 4.13156 5.17982 3.89156 5.17982C3.65156 5.17982 3.43156 5.08982 3.23156 4.90982C3.03156 4.72982 2.93156 4.50982 2.93156 4.24982C2.93156 3.98982 3.03156 3.76982 3.23156 3.58982C3.43156 3.40982 3.65156 3.31982 3.89156 3.31982ZM3.89156 12.6798C3.33156 12.6798 2.85156 12.8798 2.45156 13.2798C2.05156 13.6798 1.85156 14.1698 1.85156 14.7498C1.85156 15.3298 2.05156 15.8198 2.45156 16.2198C2.85156 16.6198 3.33156 16.8198 3.89156 16.8198C4.45156 16.8198 4.93156 16.6198 5.33156 16.2198C5.73156 15.8198 5.93156 15.3298 5.93156 14.7498C5.93156 14.1698 5.73156 13.6798 5.33156 13.2798C4.93156 12.8798 4.45156 12.6798 3.89156 12.6798ZM3.89156 13.8198C4.13156 13.8198 4.35156 13.9098 4.55156 14.0898C4.75156 14.2698 4.85156 14.4898 4.85156 14.7498C4.85156 15.0098 4.75156 15.2298 4.55156 15.4098C4.35156 15.5898 4.13156 15.6798 3.89156 15.6798C3.65156 15.6798 3.43156 15.5898 3.23156 15.4098C3.03156 15.2298 2.93156 15.0098 2.93156 14.7498C2.93156 14.4898 3.03156 14.2698 3.23156 14.0898C3.43156 13.9098 3.65156 13.8198 3.89156 13.8198ZM9.89156 2.17982C9.33156 2.17982 8.85156 2.37982 8.45156 2.77982C8.05156 3.17982 7.85156 3.66982 7.85156 4.24982C7.85156 4.82982 8.05156 5.31982 8.45156 5.71982C8.85156 6.11982 9.33156 6.31982 9.89156 6.31982C10.4516 6.31982 10.9316 6.11982 11.3316 5.71982C11.7316 5.31982 11.9316 4.82982 11.9316 4.24982C11.9316 3.66982 11.7316 3.17982 11.3316 2.77982C10.9316 2.37982 10.4516 2.17982 9.89156 2.17982ZM9.89156 3.31982C10.1316 3.31982 10.3516 3.40982 10.5516 3.58982C10.7516 3.76982 10.8516 3.98982 10.8516 4.24982C10.8516 4.50982 10.7516 4.72982 10.5516 4.90982C10.3516 5.08982 10.1316 5.17982 9.89156 5.17982C9.65156 5.17982 9.43156 5.08982 9.23156 4.90982C9.03156 4.72982 8.93156 4.50982 8.93156 4.24982C8.93156 3.98982 9.03156 3.76982 9.23156 3.58982C9.43156 3.40982 9.65156 3.31982 9.89156 3.31982ZM9.89156 12.6798C9.33156 12.6798 8.85156 12.8798 8.45156 13.2798C8.05156 13.6798 7.85156 14.1698 7.85156 14.7498C7.85156 15.3298 8.05156 15.8198 8.45156 16.2198C8.85156 16.6198 9.33156 16.8198 9.89156 16.8198C10.4516 16.8198 10.9316 16.6198 11.3316 16.2198C11.7316 15.8198 11.9316 15.3298 11.9316 14.7498C11.9316 14.1698 11.7316 13.6798 11.3316 13.2798C10.9316 12.8798 10.4516 12.6798 9.89156 12.6798ZM9.89156 13.8198C10.1316 13.8198 10.3516 13.9098 10.5516 14.0898C10.7516 14.2698 10.8516 14.4898 10.8516 14.7498C10.8516 15.0098 10.7516 15.2298 10.5516 15.4098C10.3516 15.5898 10.1316 15.6798 9.89156 15.6798C9.65156 15.6798 9.43156 15.5898 9.23156 15.4098C9.03156 15.2298 8.93156 15.0098 8.93156 14.7498C8.93156 14.4898 9.03156 14.2698 9.23156 14.0898C9.43156 13.9098 9.65156 13.8198 9.89156 13.8198ZM15.8916 2.17982C15.3316 2.17982 14.8516 2.37982 14.4516 2.77982C14.0516 3.17982 13.8516 3.66982 13.8516 4.24982C13.8516 4.82982 14.0516 5.31982 14.4516 5.71982C14.8516 6.11982 15.3316 6.31982 15.8916 6.31982C16.4516 6.31982 16.9316 6.11982 17.3316 5.71982C17.7316 5.31982 17.9316 4.82982 17.9316 4.24982C17.9316 3.66982 17.7316 3.17982 17.3316 2.77982C16.9316 2.37982 16.4516 2.17982 15.8916 2.17982ZM15.8916 3.31982C16.1316 3.31982 16.3516 3.40982 16.5516 3.58982C16.7516 3.76982 16.8516 3.98982 16.8516 4.24982C16.8516 4.50982 16.7516 4.72982 16.5516 4.90982C16.3516 5.08982 16.1316 5.17982 15.8916 5.17982C15.6516 5.17982 15.4316 5.08982 15.2316 4.90982C15.0316 4.72982 14.9316 4.50982 14.9316 4.24982C14.9316 3.98982 15.0316 3.76982 15.2316 3.58982C15.4316 3.40982 15.6516 3.31982 15.8916 3.31982ZM15.8916 12.6798C15.3316 12.6798 14.8516 12.8798 14.4516 13.2798C14.0516 13.6798 13.8516 14.1698 13.8516 14.7498C13.8516 15.3298 14.0516 15.8198 14.4516 16.2198C14.8516 16.6198 15.3316 16.8198 15.8916 16.8198C16.4516 16.8198 16.9316 16.6198 17.3316 16.2198C17.7316 15.8198 17.9316 15.3298 17.9316 14.7498C17.9316 14.1698 17.7316 13.6798 17.3316 13.2798C16.9316 12.8798 16.4516 12.6798 15.8916 12.6798ZM15.8916 13.8198C16.1316 13.8198 16.3516 13.9098 16.5516 14.0898C16.7516 14.2698 16.8516 14.4898 16.8516 14.7498C16.8516 15.0098 16.7516 15.2298 16.5516 15.4098C16.3516 15.5898 16.1316 15.6798 15.8916 15.6798C15.6516 15.6798 15.4316 15.5898 15.2316 15.4098C15.0316 15.2298 14.9316 15.0098 14.9316 14.7498C14.9316 14.4898 15.0316 14.2698 15.2316 14.0898C15.4316 13.9098 15.6516 13.8198 15.8916 13.8198ZM3.35156 5.71982V13.2198C3.35156 13.3798 3.40156 13.5198 3.50156 13.6398C3.60156 13.7598 3.73156 13.8198 3.89156 13.8198C4.05156 13.8198 4.18156 13.7598 4.28156 13.6398C4.38156 13.5198 4.43156 13.3998 4.43156 13.2798V5.71982C4.43156 5.59982 4.38156 5.47982 4.28156 5.35982C4.18156 5.23982 4.05156 5.17982 3.89156 5.17982C3.73156 5.17982 3.60156 5.23982 3.50156 5.35982C3.40156 5.47982 3.35156 5.59982 3.35156 5.71982ZM9.35156 5.71982V13.2198C9.35156 13.3798 9.40156 13.5198 9.50156 13.6398C9.60156 13.7598 9.73156 13.8198 9.89156 13.8198C10.0516 13.8198 10.1816 13.7598 10.2816 13.6398C10.3816 13.5198 10.4316 13.3998 10.4316 13.2798V5.71982C10.4316 5.59982 10.3816 5.47982 10.2816 5.35982C10.1816 5.23982 10.0516 5.17982 9.89156 5.17982C9.73156 5.17982 9.60156 5.23982 9.50156 5.35982C9.40156 5.47982 9.35156 5.59982 9.35156 5.71982ZM15.3516 5.71982V8.71982C15.3516 8.79982 15.3316 8.85982 15.2916 8.89982C15.2516 8.93982 15.2116 8.95982 15.1716 8.95982H3.89156C3.73156 8.95982 3.60156 9.00982 3.50156 9.10982C3.40156 9.20982 3.35156 9.33982 3.35156 9.49982C3.35156 9.65982 3.40156 9.78982 3.50156 9.88982C3.60156 9.98982 3.73156 10.0398 3.89156 10.0398H15.1716C15.5316 10.0398 15.8316 9.91982 16.0716 9.67982C16.3116 9.43982 16.4316 9.11982 16.4316 8.71982V5.77982C16.4316 5.61982 16.3816 5.47982 16.2816 5.35982C16.1816 5.23982 16.0516 5.17982 15.8916 5.17982C15.7316 5.17982 15.6016 5.23982 15.5016 5.35982C15.4016 5.47982 15.3516 5.59982 15.3516 5.71982Z" fill="white"/>
</svg>
