<svg width="19" height="19" viewBox="0 0 19 19" fill="none" xmlns="http://www.w3.org/2000/svg">
<g clip-path="url(#clip0_5_947)">
<path d="M10.9486 3.86C10.9486 3.7 10.8986 3.57 10.7986 3.47C10.6986 3.37 10.5686 3.32 10.4086 3.32H4.76859C4.60859 3.32 4.47859 3.37 4.37859 3.47C4.27859 3.57 4.22859 3.7 4.22859 3.86V8.36C4.22859 8.52 4.27859 8.66 4.37859 8.78C4.47859 8.9 4.60859 8.96 4.76859 8.96H10.4086C10.5686 8.96 10.6986 8.9 10.7986 8.78C10.8986 8.66 10.9486 8.52 10.9486 8.36V3.86ZM9.80859 7.82H5.30859V4.46H9.80859V7.82ZM17.4286 4.46L15.1486 3.38C15.0286 3.3 14.8886 3.28 14.7286 3.32C14.5686 3.36 14.4586 3.45 14.3986 3.59C14.3386 3.73 14.3286 3.88 14.3686 4.04C14.4086 4.2 14.5086 4.3 14.6686 4.34L15.5086 4.82L15.4486 5C15.4486 5.36 15.5586 5.68 15.7786 5.96C15.9986 6.24 16.2686 6.44 16.5886 6.56V13.4C16.5886 13.56 16.5286 13.7 16.4086 13.82C16.2886 13.94 16.1586 14 16.0186 14C15.8786 14 15.7486 13.94 15.6286 13.82C15.5086 13.7 15.4486 13.56 15.4486 13.4V8.9C15.4486 8.26 15.2186 7.68 14.7586 7.16C14.2986 6.64 13.7886 6.32 13.2286 6.2V2.72C13.2286 2.12 13.0086 1.6 12.5686 1.16C12.1286 0.720001 11.6086 0.5 11.0086 0.5H4.22859C3.62859 0.5 3.09859 0.720001 2.63859 1.16C2.17859 1.6 1.94859 2.12 1.94859 2.72V15.32L1.16859 15.74C0.928594 15.86 0.808594 16.02 0.808594 16.22V17.9C0.808594 18.06 0.868594 18.2 0.988594 18.32C1.10859 18.44 1.24859 18.5 1.40859 18.5H13.7686C13.9286 18.5 14.0586 18.44 14.1586 18.32C14.2586 18.2 14.3086 18.06 14.3086 17.9V16.22C14.3086 16.02 14.2086 15.86 14.0086 15.74L13.2286 15.32V7.34C13.5086 7.46 13.7586 7.67 13.9786 7.97C14.1986 8.27 14.3086 8.58 14.3086 8.9V13.4C14.3086 13.88 14.4786 14.29 14.8186 14.63C15.1586 14.97 15.5586 15.14 16.0186 15.14C16.4786 15.14 16.8786 14.97 17.2186 14.63C17.5586 14.29 17.7286 13.88 17.7286 13.4V5C17.7286 4.76 17.6286 4.58 17.4286 4.46ZM13.2286 17.36H1.94859V16.58L2.78859 16.16C2.98859 16.08 3.08859 15.92 3.08859 15.68V2.72C3.08859 2.44 3.19859 2.19 3.41859 1.97C3.63859 1.75 3.90859 1.64 4.22859 1.64H11.0086C11.2886 1.64 11.5386 1.75 11.7586 1.97C11.9786 2.19 12.0886 2.44 12.0886 2.72V15.68C12.0886 15.92 12.1886 16.08 12.3886 16.16L13.2286 16.58V17.36Z" fill="white"/>
</g>
<defs>
<clipPath id="clip0_5_947">
<rect width="18" height="18" fill="white" transform="matrix(1 0 0 -1 0.269531 18.5)"/>
</clipPath>
</defs>
</svg>
