<svg width="19" height="19" viewBox="0 0 19 19" fill="none" xmlns="http://www.w3.org/2000/svg">
<g clip-path="url(#clip0_5_944)">
<g filter="url(#filter0_d_5_944)">
<path d="M18.3789 11.1202C18.3789 13.1602 17.7789 14.9802 16.5789 16.5802C16.4589 16.7402 16.2989 16.8302 16.0989 16.8502C15.8989 16.8702 15.7189 16.8202 15.5589 16.7002C15.3989 16.5802 15.3089 16.4302 15.2889 16.2502C15.2689 16.0702 15.3189 15.9002 15.4389 15.7402C16.4789 14.3802 16.9989 12.8402 16.9989 11.1202C16.9989 9.76018 16.6589 8.50018 15.9789 7.34018C15.2989 6.18018 14.3689 5.26018 13.1889 4.58018C12.0089 3.90018 10.7389 3.56018 9.37891 3.56018C8.01891 3.56018 6.74891 3.90018 5.56891 4.58018C4.38891 5.26018 3.45891 6.18018 2.77891 7.34018C2.09891 8.50018 1.75891 9.76018 1.75891 11.1202C1.75891 12.8402 2.27891 14.3802 3.31891 15.7402C3.43891 15.9002 3.48891 16.0702 3.46891 16.2502C3.44891 16.4302 3.35891 16.5802 3.19891 16.7002C3.03891 16.8202 2.85891 16.8702 2.65891 16.8502C2.45891 16.8302 2.29891 16.7402 2.17891 16.5802C0.978906 14.9802 0.378906 13.1602 0.378906 11.1202C0.378906 9.52018 0.778906 8.03018 1.57891 6.65018C2.37891 5.27017 3.46891 4.18018 4.84891 3.38018C6.22891 2.58018 7.73891 2.18018 9.37891 2.18018C11.0189 2.18018 12.5289 2.58018 13.9089 3.38018C15.2889 4.18018 16.3789 5.27017 17.1789 6.65018C17.9789 8.03018 18.3789 9.52018 18.3789 11.1202ZM13.8189 6.92018C13.9789 7.04018 14.0589 7.20018 14.0589 7.40018C14.0589 7.60017 13.9789 7.76018 13.8189 7.88018L11.5389 10.2202C11.7389 10.5802 11.8389 10.9602 11.8389 11.3602C11.8389 12.0402 11.5989 12.6202 11.1189 13.1002C10.6389 13.5802 10.0589 13.8202 9.37891 13.8202C8.69891 13.8202 8.11891 13.5802 7.63891 13.1002C7.15891 12.6202 6.91891 12.0402 6.91891 11.3602C6.91891 10.6802 7.15891 10.1002 7.63891 9.62018C8.11891 9.14018 8.69891 8.90018 9.37891 8.90018C9.77891 8.90018 10.1589 9.00018 10.5189 9.20018L12.8589 6.92018C12.9789 6.76018 13.1389 6.68018 13.3389 6.68018C13.5389 6.68018 13.6989 6.76018 13.8189 6.92018ZM10.4589 11.3602C10.4589 11.0802 10.3489 10.8402 10.1289 10.6402C9.90891 10.4402 9.65891 10.3402 9.37891 10.3402C9.09891 10.3402 8.84891 10.4402 8.62891 10.6402C8.40891 10.8402 8.29891 11.0802 8.29891 11.3602C8.29891 11.6402 8.40891 11.8902 8.62891 12.1102C8.84891 12.3302 9.09891 12.4402 9.37891 12.4402C9.65891 12.4402 9.90891 12.3302 10.1289 12.1102C10.3489 11.8902 10.4589 11.6402 10.4589 11.3602Z" fill="white"/>
</g>
</g>
<defs>
<filter id="filter0_d_5_944" x="-3.62109" y="2.18018" width="26" height="22.6743" filterUnits="userSpaceOnUse" color-interpolation-filters="sRGB">
<feFlood flood-opacity="0" result="BackgroundImageFix"/>
<feColorMatrix in="SourceAlpha" type="matrix" values="0 0 0 0 0 0 0 0 0 0 0 0 0 0 0 0 0 0 127 0" result="hardAlpha"/>
<feOffset dy="4"/>
<feGaussianBlur stdDeviation="2"/>
<feComposite in2="hardAlpha" operator="out"/>
<feColorMatrix type="matrix" values="0 0 0 0 0 0 0 0 0 0 0 0 0 0 0 0 0 0 0.25 0"/>
<feBlend mode="normal" in2="BackgroundImageFix" result="effect1_dropShadow_5_944"/>
<feBlend mode="normal" in="SourceGraphic" in2="effect1_dropShadow_5_944" result="shape"/>
</filter>
<clipPath id="clip0_5_944">
<rect width="18" height="18" fill="white" transform="matrix(1 0 0 -1 0.378906 18.5)"/>
</clipPath>
</defs>
</svg>
